<svg width="101" height="100" viewBox="0 0 101 100" fill="none" xmlns="http://www.w3.org/2000/svg">
<path d="M77.5837 33.3332H64.8128L56.4795 16.7707C56.3694 16.5063 56.2059 16.2673 55.9992 16.0689C55.7926 15.8705 55.5472 15.7168 55.2785 15.6175C55.0098 15.5182 54.7235 15.4753 54.4375 15.4917C54.1514 15.508 53.8719 15.5832 53.6162 15.7124C53.3605 15.8417 53.1343 16.0223 52.9516 16.243C52.7689 16.4636 52.6336 16.7196 52.5543 16.9949C52.475 17.2702 52.4534 17.5589 52.4907 17.8429C52.528 18.127 52.6235 18.4003 52.7712 18.6457L60.1462 33.3332H40.8545L48.1878 18.7499C48.3355 18.5044 48.431 18.2311 48.4683 17.9471C48.5056 17.663 48.484 17.3743 48.4047 17.0991C48.3253 16.8238 48.1901 16.5678 48.0074 16.3471C47.8247 16.1265 47.5984 15.9459 47.3428 15.8166C47.0871 15.6873 46.8075 15.6122 46.5215 15.5958C46.2355 15.5795 45.9492 15.6223 45.6805 15.7217C45.4117 15.821 45.1664 15.9747 44.9598 16.1731C44.7531 16.3715 44.5896 16.6104 44.4795 16.8749L36.1462 33.5416H23.417C21.7594 33.5416 20.1697 34.2 18.9976 35.3722C17.8255 36.5443 17.167 38.134 17.167 39.7916V40.7291C17.2209 42.1016 17.8043 43.3999 18.7948 44.3516C19.7853 45.3033 21.1059 45.8343 22.4795 45.8332L26.542 58.6041C28.4092 57.2631 30.61 56.463 32.9025 56.2917C35.195 56.1205 37.4902 56.5847 39.536 57.6334C41.5817 58.6821 43.2986 60.2746 44.4979 62.2359C45.6971 64.1971 46.3324 66.4511 46.3337 68.7499C46.3438 70.9471 45.7609 73.1064 44.6462 74.9999H63.167C64.9356 74.9988 66.6581 74.4349 68.085 73.39C69.512 72.345 70.5695 70.8732 71.1045 69.1874L78.5212 45.8332C79.9284 45.8277 81.2765 45.2663 82.2716 44.2712C83.2667 43.2761 83.8282 41.928 83.8337 40.5207V39.5832C83.8337 37.9256 83.1752 36.3359 82.0031 35.1638C80.831 33.9917 79.2413 33.3332 77.5837 33.3332ZM79.667 40.5207C79.6676 40.6784 79.6344 40.8343 79.5698 40.978C79.5051 41.1218 79.4104 41.25 79.292 41.3541C79.1919 41.4563 79.0717 41.5368 78.9391 41.5906C78.8065 41.6444 78.6642 41.6702 78.5212 41.6666C77.6364 41.6642 76.7738 41.9436 76.0584 42.4643C75.343 42.9849 74.8119 43.7198 74.542 44.5624L67.167 67.9166C66.9018 68.7597 66.3755 69.4967 65.6639 70.021C64.9524 70.5453 64.0925 70.8298 63.2087 70.8332H50.3753C50.4591 70.142 50.5009 69.4462 50.5003 68.7499C50.4978 67.2998 50.3016 65.8565 49.917 64.4582C50.1033 64.5315 50.3004 64.5737 50.5003 64.5832C51.0529 64.5832 51.5828 64.3637 51.9735 63.973C52.3642 63.5823 52.5837 63.0524 52.5837 62.4999V49.9999C52.5837 49.4474 52.3642 48.9175 51.9735 48.5268C51.5828 48.1361 51.0529 47.9166 50.5003 47.9166C49.9478 47.9166 49.4179 48.1361 49.0272 48.5268C48.6365 48.9175 48.417 49.4474 48.417 49.9999V60.7082C46.831 57.8352 44.4321 55.4943 41.5212 53.9791L40.0837 49.3332C39.9961 49.0733 39.8582 48.8332 39.6779 48.6266C39.4975 48.42 39.2783 48.2509 39.0326 48.129C38.7869 48.0071 38.5196 47.9348 38.246 47.9163C37.9723 47.8977 37.6977 47.9332 37.4378 48.0207C37.1779 48.1083 36.9378 48.2462 36.7312 48.4265C36.5246 48.6069 36.3555 48.8261 36.2336 49.0718C36.1117 49.3175 36.0394 49.5848 36.0209 49.8584C36.0023 50.1321 36.0378 50.4067 36.1253 50.6666L36.6878 52.3332C35.7451 52.1701 34.7904 52.0865 33.8337 52.0832C32.2183 52.0779 30.6109 52.3096 29.0628 52.7707L26.4587 44.5624C26.1888 43.7198 25.6577 42.9849 24.9423 42.4643C24.2269 41.9436 23.3643 41.6642 22.4795 41.6666C22.329 41.6666 22.18 41.6369 22.041 41.5793C21.902 41.5218 21.7757 41.4374 21.6693 41.331C21.5629 41.2246 21.4785 41.0982 21.4209 40.9592C21.3633 40.8202 21.3337 40.6712 21.3337 40.5207V39.5832C21.3337 39.0307 21.5532 38.5008 21.9439 38.1101C22.3346 37.7194 22.8645 37.4999 23.417 37.4999H34.1045L32.5212 40.6666C32.0721 41.1841 31.8082 41.8365 31.7712 42.5207C31.7792 42.555 31.7792 42.5906 31.7712 42.6249C31.7719 43.131 31.8956 43.6293 32.1315 44.0771C32.3674 44.5248 32.7086 44.9086 33.1256 45.1953C33.5426 45.4821 34.023 45.6632 34.5256 45.7233C35.0281 45.7833 35.5377 45.7203 36.0105 45.5399C36.4833 45.3594 36.9052 45.0668 37.24 44.6872C37.5747 44.3076 37.8123 43.8524 37.9322 43.3607C38.0521 42.8691 38.0508 42.3556 37.9284 41.8645C37.806 41.3735 37.5661 40.9195 37.2295 40.5416L38.7712 37.4999H62.2295L63.792 40.6457C63.4553 41.0236 63.2155 41.4776 63.0931 41.9687C62.9707 42.4598 62.9694 42.9732 63.0893 43.4649C63.2092 43.9566 63.4468 44.4118 63.7815 44.7914C64.1162 45.171 64.5382 45.4636 65.011 45.644C65.4838 45.8245 65.9934 45.8874 66.4959 45.8274C66.9985 45.7674 67.4789 45.5862 67.8959 45.2995C68.3129 45.0127 68.6541 44.629 68.89 44.1813C69.1259 43.7335 69.2496 43.2352 69.2503 42.7291C69.2423 42.6948 69.2423 42.6592 69.2503 42.6249C69.2133 41.9407 68.9494 41.2883 68.5003 40.7707L66.8962 37.4999H77.5837C78.1362 37.4999 78.6661 37.7194 79.0568 38.1101C79.4475 38.5008 79.667 39.0307 79.667 39.5832V40.5207Z" fill="#CA8757"/>
<path d="M63.6662 48.0208C63.4064 47.9325 63.1316 47.8965 62.8578 47.9148C62.5839 47.933 62.3164 48.0052 62.0705 48.1272C61.8247 48.2491 61.6053 48.4185 61.4251 48.6255C61.2449 48.8324 61.1074 49.073 61.0204 49.3333L56.8537 61.8333C56.749 62.0992 56.7002 62.3839 56.7103 62.6695C56.7203 62.9552 56.789 63.2357 56.9122 63.4936C57.0353 63.7516 57.2101 63.9814 57.4259 64.1689C57.6416 64.3563 57.8936 64.4974 58.1662 64.5833C58.3875 64.6119 58.6116 64.6119 58.8329 64.5833C59.2696 64.5844 59.6957 64.4482 60.0509 64.194C60.406 63.9398 60.6723 63.5804 60.8121 63.1666L64.9787 50.6666C65.067 50.4067 65.103 50.132 65.0847 49.8582C65.0665 49.5843 64.9943 49.3168 64.8723 49.0709C64.7504 48.8251 64.581 48.6057 64.3741 48.4255C64.1671 48.2453 63.9265 48.1078 63.6662 48.0208Z" fill="#CA8757"/>
<path d="M33.8337 52.0835C30.5373 52.0835 27.315 53.061 24.5742 54.8923C21.8333 56.7237 19.6971 59.3267 18.4357 62.3721C17.1742 65.4175 16.8442 68.7687 17.4872 72.0017C18.1303 75.2347 19.7177 78.2044 22.0486 80.5353C24.3794 82.8661 27.3491 84.4535 30.5822 85.0966C33.8152 85.7397 37.1663 85.4096 40.2117 84.1482C43.2572 82.8867 45.8601 80.7505 47.6915 78.0097C49.5228 75.2688 50.5003 72.0465 50.5003 68.7502C50.5003 64.3299 48.7444 60.0907 45.6188 56.965C42.4932 53.8394 38.2539 52.0835 33.8337 52.0835Z" fill="#00A651"/>
<path d="M39.042 66.6668H35.917V63.5418C35.917 62.9893 35.6975 62.4594 35.3068 62.0687C34.9161 61.678 34.3862 61.4585 33.8337 61.4585C33.2811 61.4585 32.7512 61.678 32.3605 62.0687C31.9698 62.4594 31.7503 62.9893 31.7503 63.5418V66.6668H28.6253C28.0728 66.6668 27.5429 66.8863 27.1522 67.277C26.7615 67.6677 26.542 68.1976 26.542 68.7502C26.542 69.3027 26.7615 69.8326 27.1522 70.2233C27.5429 70.614 28.0728 70.8335 28.6253 70.8335H31.7503V73.9585C31.7503 74.511 31.9698 75.0409 32.3605 75.4316C32.7512 75.8223 33.2811 76.0418 33.8337 76.0418C34.3862 76.0418 34.9161 75.8223 35.3068 75.4316C35.6975 75.0409 35.917 74.511 35.917 73.9585V70.8335H39.042C39.5945 70.8335 40.1244 70.614 40.5151 70.2233C40.9058 69.8326 41.1253 69.3027 41.1253 68.7502C41.1253 68.1976 40.9058 67.6677 40.5151 67.277C40.1244 66.8863 39.5945 66.6668 39.042 66.6668Z" fill="white"/>
</svg>

